# xmcd
#
# Track frame offsets:
#	150
#	11955
#	25570
#	40843
#	53338
#	64648
#	80073
#	94255
#	106815
#	118323
#	131290
#	148415
#	162920
#	174533
#	194653
#
# Disc length: 2769 seconds
#
# Revision: 0
# Processed by: cddbd v1.4PL0 Copyright (c) Steve Scherf et al.
# Submitted via: EasyCDDAExtractor 4.6.9.1
#
DISCID=cd0acf0f
DTITLE=Románticos de Cuba - 30 Exitos. Vol. 1
DYEAR=1900
DGENRE=Country
TTITLE0=Fascinación-Ectasy
TTITLE1=Amapola-Siete notas de amor
TTITLE2=Sonríe-Candilejas
TTITLE3=Aquellos ojos verdes-Noche de ronda
TTITLE4=Till-Cartas de amor
TTITLE5=Bésame mucho-Dos almas
TTITLE6=Bolero-Siempre en mi corazón
TTITLE7=María Elena-Te quiero, dijiste
TTITLE8=Espérame en el cielo-Tú me acostumbraste
TTITLE9=Sus manos-Yo no existo sin tí
TTITLE10=Más-Al di là
TTITLE11=Cuándo-Arrivederci
TTITLE12=Perdono pero no olvido-Dónde estará mi vida
TTITLE13=Quiéreme mucho-Vereda Tropical
TTITLE14=Sin ti-Rayito de luna
EXTD=ID3G: 2
EXTT0=
EXTT1=
EXTT2=
EXTT3=
EXTT4=
EXTT5=
EXTT6=
EXTT7=
EXTT8=
EXTT9=
EXTT10=
EXTT11=
EXTT12=
EXTT13=
EXTT14=
PLAYORDER=
